<!-- nextjs.svg -->
<svg xmlns="http://www.w3.org/2000/svg" fill="none" viewBox="0 0 394 80">
  <path fill="#000" d="M261.919 0.0330722H330.547V12.7H303.323V79.339H289.71V12.7H261.919V0.0330722Z"/>
  <path fill="#000" d="M149.052 0.0330722V12.7H94.0421V33.0772H138.281V45.7441H94.0421V66.6721H149.052V79.339H80.43V12.7H80.4243V0.0330722H149.052Z"/>
  <path fill="#000" d="M183.32 0.0661486H165.506L229.312 79.3721H247.178L215.271 39.7464L247.127 0.126654H229.312L206.352 28.6697L183.32 0.0661486Z"/>
  <path fill="#000" d="M201.6 56.7148L192.679 45.6229L165.455 79.4387H183.32L201.6 56.7148Z"/>
  <path fill="#000" fill-rule="evenodd" d="M80.907 79.339L17.0151 0H0V79.3059H13.6121V16.9516L63.8067 79.339H80.907Z" clip-rule="evenodd"/>
  <path fill="#000" d="M333.607 78.8546C332.61 78.8546 331.762 78.5093 331.052 77.8186C330.342 77.1279 329.991 76.2917 330 75.3011C329.991 74.3377 330.342 73.5106 331.052 72.8199C331.762 72.1292 332.61 71.7838 333.607 71.7838C334.566 71.7838 335.405 72.1292 336.115 72.8199C336.835 73.5106 337.194 74.3377 337.204 75.3011C337.194 75.9554 337.028 76.5552 336.696 77.0914C336.355 77.6368 335.922 78.064 335.377 78.383C334.842 78.6929 334.252 78.8546 333.607 78.8546Z"/>
  <path fill="#000" d="M356.84 45.4453H362.872V68.6846C362.863 70.8204 362.401 72.6472 361.498 74.1832C360.585 75.7191 359.323 76.8914 357.691 77.7185C356.06 78.5364 354.21 78.9546 352.14 78.9546C350.07 78.9546 348.229 78.5364 346.598 77.7185C344.966 76.8914 343.704 75.7191 342.801 74.1832C341.889 72.6472 341.432 70.8204 341.423 68.6846V45.4453H347.464V68.1293C347.464 69.3307 347.717 70.3676 348.229 71.2491C348.731 72.1215 349.442 72.7939 350.358 73.2576C351.275 73.7304 352.336 73.9668 353.55 73.9668C354.735 73.9668 355.77 73.7304 356.676 73.2576C357.582 72.7939 358.284 72.1215 358.795 71.2491C359.307 70.3676 359.563 69.3307 359.563 68.1293V45.4453H356.84Z"/>
  <path fill="#000" d="M387.691 54.5338C387.544 53.1251 386.898 52.0254 385.773 51.2438C384.638 50.4531 383.172 50.0623 381.373 50.0623C380.11 50.0623 379.022 50.2509 378.118 50.6326C377.214 51.0142 376.513 51.5316 376.011 52.1766C375.519 52.8216 375.268 53.5484 375.277 54.3391C375.268 55.0113 375.427 55.5924 375.761 56.0916C376.096 56.5907 376.54 57.0081 377.095 57.3435C377.65 57.688 378.274 57.9607 378.969 58.177C379.654 58.3932 380.339 58.5722 381.023 58.7148L384.331 59.4053C385.7 59.6944 386.988 60.1033 388.183 60.6208C389.379 61.1291 390.425 61.7741 391.329 62.5466C392.224 63.3191 392.941 64.2553 393.471 65.3368C394 66.4274 394.265 67.6736 394.274 69.0916C394.265 71.2274 393.72 73.0905 392.644 74.6719C391.559 76.2533 389.991 77.4812 387.932 78.3546C385.873 79.2279 383.41 79.6646 380.541 79.6646C377.691 79.6646 375.207 79.2279 373.102 78.3546C370.996 77.4812 369.364 76.2259 368.213 74.5887C367.052 72.9515 366.472 70.9778 366.344 68.6574H372.422C372.54 69.9115 372.93 70.9503 373.594 71.7565C374.249 72.5627 375.113 73.1527 376.179 73.5252C377.244 73.8978 378.446 74.0849 379.785 74.0849C381.094 74.0849 382.247 73.8886 383.252 73.4888C384.256 73.0997 385.05 72.5535 385.645 71.8629C386.241 71.1722 386.538 70.3449 386.547 69.3954C386.538 68.5501 386.306 67.8503 385.9 67.2962C385.486 66.7421 384.88 66.2794 384.084 65.9258C383.279 65.5722 382.321 65.2551 381.21 64.9651L377.214 64.1107C374.544 63.4565 372.43 62.4341 370.87 61.0253C369.31 59.6258 368.54 57.7807 368.54 55.49C368.54 53.3633 369.076 51.5316 370.152 49.9684C371.218 48.4144 372.711 47.2137 374.631 46.3586C376.541 45.5035 378.729 45.0826 381.183 45.0826C383.692 45.0826 385.873 45.5035 387.746 46.3586C389.619 47.2137 391.085 48.4144 392.142 49.9684C393.199 51.5316 393.738 53.3451 393.766 55.4079H387.691V54.5338Z"/>
</svg>